<svg width="48" height="48" viewBox="0 0 24 24" fill="none" xmlns="http://www.w3.org/2000/svg">
<path d="M19.4999 4.50048C18.8363 3.83854 17.9372 3.4668 16.9999 3.4668C16.0626 3.4668 15.1635 3.83854 14.4999 4.50048L14.2099 4.79048L19.2099 9.79048L19.4999 9.50048C20.1618 8.83686 20.5336 7.9378 20.5336 7.00048C20.5336 6.06317 20.1618 5.16411 19.4999 4.50048ZM5.5499 13.5005C5.19016 13.8622 4.92859 14.3096 4.7899 14.8005L3.7899 18.4505C3.72963 18.7003 3.73453 18.9613 3.80413 19.2087C3.87373 19.456 4.0057 19.6813 4.18739 19.863C4.36907 20.0447 4.59438 20.1767 4.84172 20.2463C5.08905 20.3159 5.35012 20.3208 5.5999 20.2605L9.2499 19.2105C9.7408 19.0718 10.1882 18.8102 10.5499 18.4505L17.7899 11.2105L12.7899 6.21048L5.5499 13.5005Z" fill="#E0E0E0"/>
</svg>
