<svg width="14" height="14" viewBox="0 0 14 14" fill="none" xmlns="http://www.w3.org/2000/svg">
<path d="M7.00017 0.333496C5.68162 0.333496 4.39269 0.724489 3.29636 1.45703C2.20004 2.18957 1.34555 3.23077 0.840969 4.44894C0.336385 5.66711 0.204362 7.00756 0.461597 8.30077C0.718832 9.59397 1.35377 10.7819 2.28612 11.7142C3.21847 12.6466 4.40636 13.2815 5.69956 13.5387C6.99277 13.796 8.33322 13.6639 9.55139 13.1594C10.7696 12.6548 11.8108 11.8003 12.5433 10.704C13.2758 9.60764 13.6668 8.31871 13.6668 7.00016C13.6668 6.12468 13.4944 5.25778 13.1594 4.44894C12.8243 3.6401 12.3333 2.90517 11.7142 2.28612C11.0952 1.66706 10.3602 1.176 9.55139 0.840966C8.74255 0.505935 7.87565 0.333496 7.00017 0.333496ZM7.00017 2.66683C7.19795 2.66683 7.39129 2.72548 7.55574 2.83536C7.72019 2.94524 7.84836 3.10142 7.92405 3.28415C7.99973 3.46687 8.01954 3.66794 7.98095 3.86192C7.94237 4.0559 7.84713 4.23408 7.70727 4.37394C7.56742 4.51379 7.38924 4.60903 7.19526 4.64761C7.00128 4.6862 6.80021 4.6664 6.61748 4.59071C6.43476 4.51502 6.27858 4.38685 6.1687 4.2224C6.05882 4.05795 6.00017 3.86461 6.00017 3.66683C6.00017 3.40161 6.10552 3.14726 6.29306 2.95972C6.4806 2.77219 6.73495 2.66683 7.00017 2.66683ZM8.3335 10.6668H5.66683C5.49002 10.6668 5.32045 10.5966 5.19543 10.4716C5.0704 10.3465 5.00017 10.177 5.00017 10.0002C5.00017 9.82335 5.0704 9.65378 5.19543 9.52876C5.32045 9.40373 5.49002 9.3335 5.66683 9.3335H6.3335V7.3335H5.66683C5.49002 7.3335 5.32045 7.26326 5.19543 7.13823C5.0704 7.01321 5.00017 6.84364 5.00017 6.66683C5.00017 6.49002 5.0704 6.32045 5.19543 6.19543C5.32045 6.0704 5.49002 6.00016 5.66683 6.00016H7.00017C7.17698 6.00016 7.34655 6.0704 7.47157 6.19543C7.59659 6.32045 7.66683 6.49002 7.66683 6.66683V9.3335H8.3335C8.51031 9.3335 8.67988 9.40373 8.8049 9.52876C8.92993 9.65378 9.00017 9.82335 9.00017 10.0002C9.00017 10.177 8.92993 10.3465 8.8049 10.4716C8.67988 10.5966 8.51031 10.6668 8.3335 10.6668Z" fill="#0C5273"/>
</svg>
