<svg width="311" height="207" viewBox="0 0 311 207" fill="none" xmlns="http://www.w3.org/2000/svg">
<path d="M232.277 115.074C233.333 134.537 195.282 174.112 148.381 159.464C126.568 152.651 128.416 141.342 111.829 126.439C101.942 117.556 87.7375 110.839 83.7863 97.9272C80.3736 86.7823 82.4664 74.8032 88.3836 67.0116C101.691 49.489 128.557 37.4899 155.027 65.0985C181.498 92.7071 229.547 64.8784 232.277 115.074Z" fill="url(#paint0_linear_484_198031)" fill-opacity="0.5"/>
<path d="M215.765 65.2204C212.278 71.4434 204.642 72.2983 192.407 71.1159C183.206 70.2248 174.815 69.5352 165.613 64.5184C159.173 61.0092 154.074 56.2617 150.353 51.6503C146.321 46.6551 140.692 40.9539 143.452 35.2902C147.243 27.5095 169.17 20.9568 190.462 31.6728C213.851 43.4477 219.176 59.1382 215.765 65.2204Z" fill="url(#paint1_linear_484_198031)" fill-opacity="0.5"/>
<path d="M111.679 164.937C103.127 152.972 94.3677 140.255 82.9005 133.992C71.0726 127.528 68.8912 131.512 68.0725 137.845C67.2537 144.179 70.9031 159.185 87.0448 167.723C103.191 176.263 119.682 176.135 111.679 164.937Z" fill="url(#paint2_linear_484_198031)" fill-opacity="0.5"/>
<path d="M241.237 81.6716C237.59 82.5355 233.817 81.0155 231.393 79.6706C229.79 78.7809 229.32 76.7977 230.355 75.2836C231.917 72.9963 234.607 69.949 238.254 69.088C241.899 68.2243 245.671 69.7414 248.094 71.0846C249.698 71.9738 250.168 73.9575 249.134 75.4721C247.572 77.7598 244.883 80.8079 241.237 81.6716Z" fill="url(#paint3_linear_484_198031)"/>
<path d="M244.333 140.616C247.722 142.951 252.217 142.836 255.158 142.406C256.972 142.141 258.126 140.466 257.727 138.676C257.079 135.777 255.584 131.541 252.193 129.209C248.805 126.875 244.313 126.988 241.373 127.416C239.558 127.681 238.403 129.356 238.803 131.146C239.45 134.046 240.944 138.282 244.333 140.616Z" fill="url(#paint4_linear_484_198031)"/>
<path d="M59.2312 101.111C63.1945 105.145 69.4547 105.925 73.1923 105.996C75.0257 106.031 76.4684 104.613 76.4654 102.78C76.4595 99.0434 75.7883 92.7755 71.8221 88.745C67.8596 84.712 61.6036 83.93 57.8674 83.8575C56.0337 83.8219 54.5904 85.2396 54.5932 87.0736C54.5988 90.8103 55.2689 97.0785 59.2312 101.111Z" fill="url(#paint5_linear_484_198031)"/>
<path d="M239.914 104.458C238.234 104.458 236.872 105.82 236.872 107.5C236.872 109.181 238.234 110.543 239.914 110.543C241.594 110.543 242.957 109.181 242.957 107.5C242.957 105.82 241.594 104.458 239.914 104.458Z" fill="#3E0084"/>
<path d="M98.0556 143.631C96.1653 143.631 94.6329 145.163 94.6329 147.054C94.6329 148.944 96.1653 150.477 98.0556 150.477C99.946 150.477 101.478 148.944 101.478 147.054C101.478 145.163 99.946 143.631 98.0556 143.631Z" fill="#3E0084"/>
<path d="M78.4694 62.6236C76.8941 62.6236 75.6171 61.3466 75.6171 59.7713C75.6171 58.196 76.8941 56.9189 78.4694 56.9189C80.0447 56.9189 81.3218 58.196 81.3218 59.7713C81.3218 61.3466 80.0447 62.6236 78.4694 62.6236Z" fill="#3E0084"/>
<path d="M189.902 75.935C189.167 75.935 188.571 75.339 188.571 74.6037C188.571 73.8685 189.167 73.2725 189.902 73.2725C190.638 73.2725 191.234 73.8685 191.234 74.6037C191.234 75.339 190.638 75.935 189.902 75.935Z" fill="#3E0084"/>
<path d="M230.596 147.434C229.651 147.434 228.885 146.668 228.885 145.722C228.885 144.777 229.651 144.011 230.596 144.011C231.542 144.011 232.308 144.777 232.308 145.722C232.308 146.668 231.542 147.434 230.596 147.434Z" fill="#E1E4E5"/>
<path d="M71.2434 115.868C69.8781 115.868 68.7713 114.761 68.7713 113.396C68.7713 112.031 69.8781 110.924 71.2434 110.924C72.6087 110.924 73.7155 112.031 73.7155 113.396C73.7155 114.761 72.6087 115.868 71.2434 115.868Z" fill="#E1E4E5"/>
<path d="M128.461 163.367C127.422 163.367 126.58 162.525 126.58 161.486C126.58 160.447 127.422 159.604 128.461 159.604C129.5 159.604 130.343 160.447 130.343 161.486C130.343 162.525 129.5 163.367 128.461 163.367Z" fill="#E1E4E5"/>
<path d="M207.777 46.2696C206.622 46.2696 205.686 45.333 205.686 44.1777C205.686 43.0225 206.622 42.0859 207.777 42.0859C208.933 42.0859 209.869 43.0225 209.869 44.1777C209.869 45.333 208.933 46.2696 207.777 46.2696Z" fill="#E1E4E5"/>
<path d="M92.8297 94.219C93.0982 95.2209 92.5036 96.2509 91.5016 96.5193C90.4996 96.7878 89.4697 96.1932 89.2012 95.1912C88.9327 94.1892 89.5274 93.1593 90.5293 92.8908C91.5313 92.6223 92.5612 93.217 92.8297 94.219Z" fill="#E1E4E5"/>
<path d="M124.101 51.2674C122.721 51.2674 121.602 50.1486 121.602 48.7685C121.602 47.3883 122.721 46.2695 124.101 46.2695C125.481 46.2695 126.6 47.3883 126.6 48.7685C126.6 50.1486 125.481 51.2674 124.101 51.2674Z" fill="#E1E4E5"/>
<path d="M211.01 102.692C209.948 102.692 209.087 102.004 209.087 101.155C209.087 100.306 209.948 99.6172 211.01 99.6172C212.071 99.6172 212.932 100.306 212.932 101.155C212.932 102.004 212.071 102.692 211.01 102.692Z" fill="#E1E4E5"/>
<path d="M171.191 43.6284C171.749 45.7138 170.512 47.8573 168.426 48.416C166.341 48.9748 164.197 47.7372 163.639 45.6519C163.08 43.5665 164.317 41.423 166.403 40.8642C168.488 40.3055 170.632 41.543 171.191 43.6284Z" fill="#E1E4E5"/>
<path d="M244.87 89.2456H244.92C245.217 93.4647 248.355 93.5298 248.355 93.5298C248.355 93.5298 244.895 93.5973 244.895 98.4723C244.895 93.5973 241.435 93.5298 241.435 93.5298C241.435 93.5298 244.572 93.4647 244.87 89.2456ZM110.932 27.4141H111.018C111.531 34.7972 116.935 34.9109 116.935 34.9109C116.935 34.9109 110.976 35.029 110.976 43.5602C110.976 35.029 105.017 34.9109 105.017 34.9109C105.017 34.9109 110.419 34.7972 110.932 27.4141Z" fill="#E1E4E5"/>
<path d="M156.435 190.833C213.364 190.833 259.514 188.083 259.514 184.689C259.514 181.296 213.364 178.546 156.435 178.546C99.5058 178.546 53.3561 181.296 53.3561 184.689C53.3561 188.083 99.5058 190.833 156.435 190.833Z" fill="url(#paint6_linear_484_198031)"/>
<path d="M152.594 180.314H159.044V122.266H152.594V180.314Z" fill="white" stroke="#E1E4E5" stroke-width="2"/>
<path d="M142.363 176.88C140.997 176.88 139.891 177.987 139.891 179.352C139.891 180.718 140.997 181.824 142.363 181.824H169.365C170.73 181.824 171.837 180.718 171.837 179.352C171.837 177.987 170.73 176.88 169.365 176.88H142.363ZM214.267 81.8517L218.912 98.0868C218.988 98.3506 219.011 98.6268 218.98 98.8995C218.949 99.1722 218.864 99.4361 218.731 99.6762C218.598 99.9163 218.419 100.128 218.204 100.299C217.989 100.469 217.743 100.596 217.479 100.672L189.284 108.738C188.869 108.856 188.427 108.843 188.02 108.7C187.612 108.557 187.259 108.292 187.008 107.94C186.87 107.747 186.766 107.531 186.7 107.302L182.058 91.0743C181.982 90.8107 181.959 90.5348 181.99 90.2623C182.021 89.9898 182.105 89.7261 182.238 89.4862C182.371 89.2463 182.55 89.035 182.765 88.8643C182.979 88.6936 183.225 88.5668 183.489 88.4913L211.684 80.4233C212.216 80.2712 212.787 80.3362 213.271 80.6039C213.755 80.8716 214.113 81.3204 214.267 81.8517Z" fill="white"/>
<path d="M218.731 99.6762C218.864 99.4361 218.949 99.1722 218.98 98.8995C219.011 98.6268 218.988 98.3506 218.912 98.0868L214.267 81.8517C214.113 81.3204 213.755 80.8716 213.271 80.6039C212.787 80.3362 212.216 80.2712 211.684 80.4233L183.489 88.4913C183.225 88.5668 182.979 88.6936 182.765 88.8643C182.55 89.035 182.371 89.2463 182.238 89.4862C182.105 89.7261 182.021 89.9898 181.99 90.2623C181.959 90.5348 181.982 90.8107 182.058 91.0743L186.7 107.302C186.766 107.531 186.87 107.747 187.008 107.94C187.259 108.292 187.612 108.557 188.02 108.7M218.731 99.6762C218.598 99.9163 218.419 100.128 218.204 100.299C217.989 100.469 217.743 100.596 217.479 100.672L189.284 108.738C188.869 108.856 188.427 108.843 188.02 108.7M218.731 99.6762L202.87 97.2823C201.686 97.1036 200.484 97.4647 199.595 98.2663L188.02 108.7M171.837 179.352V179.352C171.837 180.718 170.73 181.824 169.365 181.824H142.363C140.997 181.824 139.891 180.718 139.891 179.352V179.352C139.891 177.987 140.997 176.88 142.363 176.88H169.365C170.73 176.88 171.837 177.987 171.837 179.352Z" stroke="#E1E4E5" stroke-width="2"/>
<path d="M213.271 80.6042C214.169 81.1011 213.883 82.3283 213.239 83.1281L203.316 95.4497C202.303 96.7067 200.635 97.2321 199.085 96.782L183.126 92.1468C182.61 91.9968 182.206 91.5918 182.058 91.0746C181.982 90.811 181.959 90.5351 181.99 90.2626C182.021 89.9901 182.105 89.7264 182.238 89.4865C182.371 89.2466 182.55 89.0353 182.765 88.8646C182.979 88.6939 183.225 88.5671 183.489 88.4916L211.684 80.4236C212.216 80.2715 212.787 80.3365 213.271 80.6042ZM119.335 76.1639L125.22 96.7341C125.316 97.0684 125.345 97.4183 125.306 97.7638C125.267 98.1094 125.16 98.4438 124.991 98.748C124.823 99.0522 124.596 99.3201 124.323 99.5366C124.051 99.753 123.739 99.9137 123.405 100.009L87.68 110.229C87.154 110.379 86.5944 110.363 86.0782 110.182C85.562 110.001 85.1145 109.664 84.7973 109.219C84.622 108.974 84.4901 108.7 84.4074 108.411L78.525 87.8492C78.4289 87.5152 78.3996 87.1656 78.4387 86.8204C78.4778 86.4751 78.5846 86.1409 78.753 85.8369C78.9213 85.533 79.148 85.2652 79.4199 85.0489C79.6918 84.8325 80.0037 84.6719 80.3378 84.5763L116.062 74.3538C117.465 73.9526 118.925 74.7606 119.335 76.1639Z" fill="white"/>
<path d="M124.991 98.748C125.16 98.4438 125.267 98.1094 125.306 97.7638C125.345 97.4183 125.316 97.0684 125.22 96.7341L119.335 76.1639C118.925 74.7606 117.465 73.9526 116.062 74.3538L80.3378 84.5763C80.0037 84.6719 79.6918 84.8325 79.4199 85.0489C79.148 85.2652 78.9213 85.533 78.753 85.8369C78.5846 86.1409 78.4778 86.4751 78.4387 86.8204C78.3996 87.1656 78.4289 87.5152 78.525 87.8492L84.4074 108.411C84.4901 108.7 84.622 108.974 84.7973 109.219C85.1145 109.664 85.562 110.001 86.0782 110.182M124.991 98.748C124.823 99.0522 124.596 99.3201 124.323 99.5366C124.051 99.753 123.739 99.9137 123.405 100.009L87.68 110.229C87.154 110.379 86.5944 110.363 86.0782 110.182M124.991 98.748L104.259 96.2149C103.139 96.078 102.013 96.4205 101.159 97.158L86.0782 110.182M182.058 91.0746V91.0746C182.206 91.5918 182.61 91.9968 183.126 92.1468L199.085 96.782C200.635 97.2321 202.303 96.7067 203.316 95.4497L213.239 83.1281C213.884 82.3283 214.169 81.1011 213.271 80.6042V80.6042C212.787 80.3365 212.216 80.2715 211.684 80.4236L183.489 88.4916C183.225 88.5671 182.979 88.6939 182.765 88.8646C182.55 89.0353 182.371 89.2466 182.238 89.4865C182.105 89.7264 182.021 89.9901 181.99 90.2626C181.959 90.5351 181.982 90.811 182.058 91.0746Z" stroke="#E1E4E5" stroke-width="2"/>
<path d="M118.062 74.5769C119.209 75.2056 118.846 76.7712 118.025 77.7901L105.013 93.9469C104 95.2039 102.332 95.7293 100.782 95.2791L79.8782 89.2076C79.2236 89.0175 78.7126 88.5045 78.525 87.8492C78.4289 87.5152 78.3996 87.1656 78.4387 86.8204C78.4778 86.4751 78.5846 86.1409 78.753 85.8369C78.9213 85.533 79.148 85.2652 79.4199 85.0489C79.6918 84.8325 80.0037 84.6719 80.3378 84.5763L116.062 74.3538C116.76 74.1543 117.472 74.2538 118.062 74.5769ZM223.993 118.477L227.769 131.675C227.83 131.889 227.849 132.114 227.824 132.335C227.798 132.557 227.73 132.772 227.622 132.967C227.513 133.162 227.368 133.334 227.193 133.473C227.019 133.612 226.818 133.715 226.604 133.776L203.683 140.333C203.25 140.457 202.785 140.403 202.391 140.185C201.998 139.966 201.707 139.599 201.583 139.166L197.809 125.974C197.747 125.76 197.728 125.535 197.754 125.314C197.779 125.092 197.847 124.878 197.955 124.683C198.063 124.488 198.209 124.316 198.383 124.177C198.558 124.039 198.758 123.936 198.972 123.874L221.893 117.315C222.325 117.192 222.789 117.245 223.183 117.462C223.576 117.68 223.868 118.045 223.993 118.477Z" fill="white"/>
<path d="M227.622 132.967C227.73 132.772 227.798 132.557 227.824 132.335C227.849 132.114 227.83 131.889 227.769 131.675L223.993 118.477C223.868 118.045 223.576 117.68 223.183 117.462C222.789 117.245 222.325 117.192 221.893 117.315L198.972 123.874C198.758 123.936 198.558 124.039 198.383 124.177C198.209 124.316 198.063 124.488 197.955 124.683C197.847 124.878 197.779 125.092 197.754 125.314C197.728 125.535 197.747 125.76 197.809 125.974L201.583 139.166C201.707 139.599 201.998 139.966 202.391 140.185M227.622 132.967C227.513 133.162 227.368 133.334 227.193 133.473C227.019 133.612 226.818 133.715 226.604 133.776L203.683 140.333C203.25 140.457 202.785 140.403 202.391 140.185M227.622 132.967L214.788 131.24C213.651 131.088 212.503 131.43 211.636 132.181L202.391 140.185M78.525 87.8492V87.8492C78.7126 88.5045 79.2236 89.0175 79.8782 89.2076L100.782 95.2791C102.332 95.7293 104 95.2039 105.013 93.9469L118.025 77.7901C118.846 76.7712 119.209 75.2056 118.062 74.5769C117.472 74.2538 116.76 74.1543 116.062 74.3538L80.3378 84.5763C80.0037 84.6719 79.6918 84.8325 79.4199 85.0489C79.148 85.2652 78.9213 85.533 78.753 85.8369C78.5846 86.1409 78.4778 86.4751 78.4387 86.8204C78.3996 87.1656 78.4289 87.5152 78.525 87.8492Z" stroke="#E1E4E5" stroke-width="2"/>
<path d="M223.183 117.462C223.913 117.866 223.681 118.864 223.157 119.514L215.403 129.143C214.39 130.4 212.722 130.925 211.172 130.475L198.677 126.845C198.257 126.723 197.929 126.394 197.809 125.974C197.747 125.76 197.728 125.535 197.753 125.314C197.779 125.092 197.847 124.878 197.955 124.683C198.063 124.488 198.209 124.316 198.383 124.177C198.557 124.039 198.758 123.936 198.972 123.874L221.893 117.315C222.325 117.192 222.789 117.245 223.183 117.462ZM90.7992 122.031L94.4868 134.92C94.5469 135.13 94.5652 135.349 94.5406 135.566C94.5159 135.782 94.4489 135.992 94.3432 136.182C94.2376 136.373 94.0954 136.541 93.9248 136.676C93.7542 136.812 93.5586 136.913 93.3491 136.973L70.9647 143.376C70.6351 143.47 70.2844 143.46 69.961 143.346C69.6375 143.233 69.3571 143.022 69.1584 142.743C69.0484 142.589 68.9657 142.418 68.9139 142.237L65.228 129.353C65.1678 129.144 65.1495 128.925 65.174 128.708C65.1986 128.492 65.2655 128.283 65.371 128.092C65.4765 127.902 65.6185 127.734 65.7889 127.599C65.9592 127.463 66.1546 127.362 66.3639 127.303L88.7483 120.897C89.1706 120.777 89.6236 120.828 90.008 121.041C90.3923 121.253 90.6768 121.609 90.7992 122.031Z" fill="white"/>
<path d="M94.3432 136.182C94.4489 135.992 94.516 135.782 94.5406 135.566C94.5652 135.349 94.5469 135.13 94.4868 134.92L90.7992 122.031C90.6768 121.609 90.3923 121.253 90.008 121.041C89.6236 120.828 89.1706 120.777 88.7483 120.897L66.3639 127.303C66.1546 127.362 65.9592 127.463 65.7889 127.599C65.6185 127.734 65.4765 127.902 65.371 128.092C65.2655 128.283 65.1986 128.492 65.174 128.708C65.1495 128.925 65.1678 129.144 65.228 129.353L68.9139 142.237C68.9657 142.418 69.0484 142.589 69.1584 142.743C69.3571 143.022 69.6375 143.233 69.961 143.346M94.3432 136.182C94.2376 136.373 94.0954 136.541 93.9248 136.676C93.7542 136.812 93.5586 136.913 93.3491 136.973L70.9647 143.376C70.6351 143.47 70.2844 143.46 69.961 143.346M94.3432 136.182L81.9119 134.291C80.7042 134.107 79.4787 134.485 78.5846 135.318L69.961 143.346M197.809 125.974V125.974C197.929 126.394 198.257 126.723 198.677 126.845L211.172 130.475C212.722 130.925 214.39 130.4 215.403 129.143L223.157 119.514C223.681 118.864 223.913 117.866 223.183 117.462V117.462C222.789 117.245 222.325 117.192 221.893 117.315L198.972 123.874C198.758 123.936 198.557 124.039 198.383 124.177C198.209 124.316 198.063 124.488 197.955 124.683C197.847 124.878 197.779 125.092 197.753 125.314C197.728 125.535 197.747 125.76 197.809 125.974Z" stroke="#E1E4E5" stroke-width="2"/>
<path d="M90.008 121.041C90.7214 121.436 90.4946 122.41 89.9833 123.045L82.4492 132.399C81.4368 133.656 79.7682 134.182 78.2182 133.732L66.0763 130.205C65.666 130.086 65.3456 129.764 65.228 129.353C65.1678 129.144 65.1495 128.925 65.174 128.709C65.1986 128.493 65.2655 128.283 65.371 128.093C65.4765 127.902 65.6185 127.735 65.7889 127.599C65.9592 127.464 66.1546 127.363 66.3639 127.303L88.7483 120.898C89.1706 120.777 89.6236 120.829 90.008 121.041ZM119.979 115.137L122.297 123.24C122.335 123.372 122.347 123.51 122.331 123.646C122.316 123.782 122.273 123.914 122.207 124.033C122.141 124.153 122.051 124.259 121.944 124.344C121.837 124.429 121.714 124.493 121.582 124.53L107.509 128.556C107.243 128.632 106.958 128.599 106.716 128.465C106.474 128.331 106.296 128.106 106.22 127.84L103.903 119.74C103.865 119.609 103.853 119.471 103.869 119.335C103.884 119.199 103.926 119.067 103.993 118.947C104.059 118.828 104.148 118.722 104.255 118.637C104.362 118.552 104.485 118.488 104.617 118.451L118.69 114.424C118.955 114.348 119.24 114.381 119.481 114.514C119.723 114.648 119.902 114.872 119.979 115.137Z" fill="white"/>
<path d="M122.207 124.033C122.273 123.914 122.316 123.782 122.331 123.646C122.347 123.51 122.335 123.372 122.297 123.24L119.979 115.137C119.902 114.872 119.723 114.648 119.481 114.514C119.24 114.381 118.955 114.348 118.69 114.424L104.617 118.451C104.485 118.488 104.362 118.552 104.255 118.637C104.148 118.722 104.059 118.828 103.993 118.947C103.926 119.067 103.884 119.199 103.869 119.335C103.853 119.471 103.865 119.609 103.903 119.74L106.22 127.84C106.296 128.106 106.474 128.331 106.716 128.465M122.207 124.033C122.141 124.153 122.051 124.259 121.944 124.344C121.837 124.429 121.714 124.493 121.582 124.53L107.509 128.556C107.243 128.632 106.958 128.599 106.716 128.465M122.207 124.033L114.966 122.827C113.728 122.621 112.465 123.008 111.555 123.872L106.716 128.465M65.228 129.353V129.353C65.3456 129.764 65.666 130.086 66.0763 130.205L78.2182 133.732C79.7682 134.182 81.4368 133.656 82.4492 132.399L89.9833 123.045C90.4946 122.41 90.7214 121.436 90.008 121.041V121.041C89.6236 120.829 89.1706 120.777 88.7483 120.898L66.3639 127.303C66.1546 127.363 65.9592 127.464 65.7889 127.599C65.6185 127.735 65.4765 127.902 65.371 128.093C65.2655 128.283 65.1986 128.493 65.174 128.709C65.1495 128.925 65.1678 129.144 65.228 129.353Z" stroke="#E1E4E5" stroke-width="2"/>
<path d="M119.481 114.514C119.93 114.762 119.787 115.374 119.466 115.773L115.35 120.884C114.338 122.141 112.669 122.666 111.119 122.216L104.436 120.275C104.178 120.2 103.977 119.998 103.903 119.74C103.865 119.608 103.853 119.47 103.869 119.334C103.884 119.198 103.926 119.067 103.993 118.947C104.059 118.827 104.148 118.722 104.255 118.637C104.362 118.551 104.485 118.488 104.617 118.45L118.69 114.424C118.955 114.348 119.24 114.38 119.481 114.514ZM226.027 50.9521L229.714 63.8408C229.835 64.2639 229.784 64.7178 229.57 65.1026C229.357 65.4875 229 65.772 228.577 65.8934L206.192 72.2969C205.769 72.4175 205.315 72.3652 204.931 72.1515C204.546 71.9378 204.262 71.5802 204.141 71.1572L200.455 58.2736C200.395 58.0644 200.377 57.8453 200.402 57.629C200.426 57.4127 200.493 57.2033 200.599 57.0129C200.704 56.8225 200.846 56.6547 201.016 56.5192C201.187 56.3837 201.382 56.2831 201.591 56.2231L223.976 49.8178C224.398 49.6971 224.851 49.7487 225.236 49.9613C225.62 50.1739 225.904 50.5302 226.027 50.9521Z" fill="white"/>
<path d="M229.57 65.1026C229.784 64.7178 229.835 64.2639 229.714 63.8408L226.027 50.9521C225.904 50.5302 225.62 50.1739 225.236 49.9613C224.851 49.7487 224.398 49.6971 223.976 49.8178L201.591 56.2231C201.382 56.2831 201.187 56.3837 201.016 56.5192C200.846 56.6547 200.704 56.8225 200.599 57.0129C200.493 57.2033 200.426 57.4127 200.402 57.629C200.377 57.8453 200.395 58.0644 200.455 58.2736L204.141 71.1572C204.262 71.5802 204.546 71.9378 204.931 72.1515M229.57 65.1026C229.357 65.4875 229 65.772 228.577 65.8934L206.192 72.2969C205.769 72.4175 205.315 72.3652 204.931 72.1515M229.57 65.1026L217.082 63.9827C216.066 63.8916 215.053 64.1919 214.252 64.8223L204.931 72.1515M103.903 119.74V119.74C103.977 119.998 104.178 120.2 104.436 120.275L111.119 122.216C112.669 122.666 114.338 122.141 115.35 120.884L119.466 115.773C119.787 115.374 119.93 114.762 119.481 114.514V114.514C119.24 114.38 118.955 114.348 118.69 114.424L104.617 118.45C104.485 118.488 104.362 118.551 104.255 118.637C104.148 118.722 104.059 118.827 103.993 118.947C103.926 119.067 103.884 119.198 103.869 119.334C103.853 119.47 103.865 119.608 103.903 119.74Z" stroke="#E1E4E5" stroke-width="2"/>
<path d="M225.236 49.9613C225.949 50.3559 225.722 51.3302 225.211 51.9652L217.677 61.3195C216.664 62.5765 214.996 63.102 213.446 62.6518L201.304 59.125C200.894 59.0058 200.573 58.6843 200.455 58.2736C200.395 58.0644 200.377 57.8453 200.402 57.629C200.426 57.4127 200.493 57.2033 200.599 57.0129C200.704 56.8225 200.846 56.6547 201.016 56.5192C201.187 56.3837 201.382 56.2831 201.591 56.2231L223.976 49.8178C224.398 49.6971 224.851 49.7487 225.236 49.9613ZM168.197 60.7584L171.884 73.6472C172.006 74.0702 171.954 74.5241 171.741 74.909C171.527 75.294 171.17 75.5784 170.747 75.6997L148.362 82.1033C147.939 82.2241 147.486 82.1719 147.101 81.9582C146.716 81.7445 146.432 81.3869 146.312 80.9639L142.626 68.0803C142.566 67.871 142.547 67.652 142.572 67.4356C142.596 67.2193 142.663 67.0099 142.769 66.8195C142.874 66.629 143.016 66.4612 143.187 66.3256C143.357 66.1901 143.552 66.0894 143.762 66.0294L166.146 59.6242C166.568 59.5036 167.021 59.5553 167.406 59.7679C167.79 59.9805 168.074 60.3366 168.197 60.7584Z" fill="white"/>
<path d="M171.741 74.909C171.954 74.5241 172.006 74.0702 171.884 73.6472L168.197 60.7584C168.074 60.3366 167.79 59.9805 167.406 59.7679C167.021 59.5553 166.568 59.5036 166.146 59.6242L143.762 66.0294C143.552 66.0894 143.357 66.1901 143.187 66.3256C143.016 66.4612 142.874 66.629 142.769 66.8195C142.663 67.0099 142.596 67.2193 142.572 67.4356C142.547 67.652 142.566 67.871 142.626 68.0803L146.312 80.9639C146.432 81.3869 146.716 81.7445 147.101 81.9582M171.741 74.909C171.527 75.294 171.17 75.5784 170.747 75.6997L148.362 82.1033C147.939 82.2241 147.486 82.1719 147.101 81.9582M171.741 74.909L159.281 73.2387C158.148 73.0869 157.005 73.4268 156.139 74.1727L147.101 81.9582M200.455 58.2736V58.2736C200.573 58.6843 200.894 59.0058 201.304 59.125L213.446 62.6518C214.996 63.102 216.664 62.5765 217.677 61.3195L225.211 51.9652C225.722 51.3302 225.949 50.3559 225.236 49.9613V49.9613C224.851 49.7487 224.398 49.6971 223.976 49.8178L201.591 56.2231C201.382 56.2831 201.187 56.3837 201.016 56.5192C200.846 56.6547 200.704 56.8225 200.599 57.0129C200.493 57.2033 200.426 57.4127 200.402 57.629C200.377 57.8453 200.395 58.0644 200.455 58.2736Z" stroke="#E1E4E5" stroke-width="2"/>
<path d="M167.406 59.7678C168.119 60.1623 167.892 61.1364 167.381 61.7713L159.847 71.1257C158.835 72.3827 157.166 72.9082 155.616 72.458L143.474 68.9311C143.064 68.812 142.743 68.4907 142.626 68.0801C142.565 67.8709 142.547 67.6518 142.572 67.4355C142.596 67.2192 142.663 67.0098 142.769 66.8193C142.874 66.6289 143.016 66.4611 143.187 66.3255C143.357 66.19 143.552 66.0893 143.762 66.0293L166.146 59.624C166.568 59.5035 167.021 59.5552 167.406 59.7678ZM134.873 45.7088L138.561 58.5976C138.682 59.0206 138.63 59.4745 138.417 59.8594C138.203 60.2443 137.846 60.5287 137.423 60.6501L115.038 67.0537C114.615 67.1744 114.161 67.1222 113.777 66.9085C113.392 66.6948 113.109 66.3372 112.988 65.9143L109.302 53.0307C109.242 52.8214 109.223 52.6024 109.248 52.386C109.272 52.1697 109.339 51.9603 109.445 51.7699C109.55 51.5794 109.692 51.4116 109.863 51.276C110.033 51.1405 110.228 51.0398 110.438 50.9798L132.822 44.5746C133.244 44.454 133.697 44.5056 134.082 44.7182C134.466 44.9308 134.75 45.287 134.873 45.7088Z" fill="white"/>
<path d="M138.417 59.8594C138.63 59.4745 138.682 59.0206 138.561 58.5976L134.873 45.7088C134.75 45.287 134.466 44.9308 134.082 44.7182C133.697 44.5056 133.244 44.454 132.822 44.5746L110.438 50.9798C110.228 51.0398 110.033 51.1405 109.863 51.276C109.692 51.4116 109.55 51.5794 109.445 51.7699C109.339 51.9603 109.272 52.1697 109.248 52.386C109.223 52.6024 109.242 52.8214 109.302 53.0307L112.988 65.9143C113.109 66.3372 113.392 66.6948 113.777 66.9085M138.417 59.8594C138.203 60.2443 137.846 60.5287 137.423 60.6501L115.038 67.0537C114.615 67.1744 114.161 67.1222 113.777 66.9085M138.417 59.8594L125.784 58.23C124.649 58.0837 123.506 58.4301 122.644 59.1815L113.777 66.9085M142.626 68.0801V68.0801C142.743 68.4907 143.064 68.812 143.474 68.9311L155.616 72.458C157.166 72.9082 158.835 72.3827 159.847 71.1257L167.381 61.7713C167.892 61.1364 168.119 60.1623 167.406 59.7678V59.7678C167.021 59.5552 166.568 59.5035 166.146 59.624L143.762 66.0293C143.552 66.0893 143.357 66.19 143.187 66.3255C143.016 66.4611 142.874 66.6289 142.769 66.8193C142.663 67.0098 142.596 67.2192 142.572 67.4355C142.547 67.6518 142.565 67.8709 142.626 68.0801Z" stroke="#E1E4E5" stroke-width="2"/>
<path d="M134.082 44.7182C134.795 45.1128 134.568 46.0869 134.057 46.7218L126.523 56.0762C125.511 57.3333 123.842 57.8587 122.292 57.4085L110.15 53.8817C109.74 53.7626 109.419 53.4412 109.302 53.0307C109.242 52.8214 109.223 52.6024 109.248 52.386C109.272 52.1697 109.339 51.9603 109.445 51.7699C109.55 51.5794 109.692 51.4116 109.863 51.276C110.033 51.1405 110.228 51.0398 110.438 50.9798L132.822 44.5746C133.244 44.454 133.697 44.5056 134.082 44.7182Z" fill="white" stroke="#E1E4E5" stroke-width="2"/>
<path fill-rule="evenodd" clip-rule="evenodd" d="M143.104 108.576H170.22C174.986 108.576 178.848 112.439 178.848 117.204V130.762C178.848 131.416 178.588 132.043 178.126 132.505C177.663 132.967 177.037 133.227 176.383 133.227H136.942C136.288 133.227 135.661 132.967 135.199 132.505C134.737 132.043 134.477 131.416 134.476 130.762V117.204C134.476 112.439 138.339 108.576 143.104 108.576Z" fill="white" stroke="#E1E4E5" stroke-width="2"/>
<path d="M151.732 101.181V118.436" stroke="#E1E4E5" stroke-width="2" stroke-linecap="round"/>
<path d="M151.735 117.512C151.98 117.513 152.214 117.611 152.387 117.785C152.56 117.959 152.657 118.194 152.657 118.439C152.657 118.56 152.633 118.68 152.586 118.792C152.54 118.904 152.472 119.006 152.386 119.092C152.3 119.177 152.198 119.245 152.086 119.291C151.974 119.337 151.853 119.361 151.732 119.361C151.609 119.363 151.487 119.34 151.373 119.295C151.259 119.249 151.155 119.182 151.067 119.095C150.98 119.009 150.91 118.906 150.863 118.793C150.815 118.68 150.791 118.558 150.791 118.435C150.791 118.312 150.816 118.19 150.864 118.077C150.911 117.964 150.981 117.861 151.069 117.775C151.157 117.689 151.261 117.622 151.375 117.577C151.489 117.531 151.612 117.509 151.735 117.512Z" stroke="#E1E4E5" stroke-width="8.452" stroke-linecap="round" stroke-linejoin="round"/>
<path fill-rule="evenodd" clip-rule="evenodd" d="M170.22 108.576C165.455 108.576 161.593 112.439 161.593 117.204V133.227" fill="white"/>
<path d="M170.22 108.576C165.455 108.576 161.593 112.439 161.593 117.204V133.227" stroke="#E1E4E5" stroke-width="2"/>
<path d="M134.564 102.623C134.28 103.106 134.629 103.715 135.19 103.715H152.072C152.264 103.715 152.449 103.639 152.585 103.503C152.721 103.367 152.797 103.183 152.798 102.99V94.4818C152.798 93.7964 152.243 93.2422 151.558 93.2422H135.178C134.617 93.2422 134.268 93.8525 134.554 94.3361L136.783 98.1109C136.917 98.3379 136.917 98.6197 136.783 98.847L134.564 102.623Z" fill="#3E0084"/>
<defs>
<linearGradient id="paint0_linear_484_198031" x1="186.797" y1="231.737" x2="115.621" y2="-89.3883" gradientUnits="userSpaceOnUse">
<stop stop-color="white"/>
<stop offset="1" stop-color="#EEEEEE"/>
</linearGradient>
<linearGradient id="paint1_linear_484_198031" x1="192.275" y1="105.552" x2="161.195" y2="-34.1071" gradientUnits="userSpaceOnUse">
<stop stop-color="white"/>
<stop offset="1" stop-color="#EEEEEE"/>
</linearGradient>
<linearGradient id="paint2_linear_484_198031" x1="102.129" y1="204.215" x2="74.0692" y2="74.451" gradientUnits="userSpaceOnUse">
<stop stop-color="white"/>
<stop offset="1" stop-color="#EEEEEE"/>
</linearGradient>
<linearGradient id="paint3_linear_484_198031" x1="218.444" y1="85.2366" x2="271.429" y2="60.2051" gradientUnits="userSpaceOnUse">
<stop stop-color="white"/>
<stop offset="1" stop-color="#EEEEEE"/>
</linearGradient>
<linearGradient id="paint4_linear_484_198031" x1="265.708" y1="153.018" x2="222.513" y2="107.47" gradientUnits="userSpaceOnUse">
<stop stop-color="white"/>
<stop offset="1" stop-color="#EEEEEE"/>
</linearGradient>
<linearGradient id="paint5_linear_484_198031" x1="82.9662" y1="121.793" x2="39.9592" y2="54.3753" gradientUnits="userSpaceOnUse">
<stop stop-color="white"/>
<stop offset="1" stop-color="#EEEEEE"/>
</linearGradient>
<linearGradient id="paint6_linear_484_198031" x1="160.831" y1="197.723" x2="160.808" y2="165.175" gradientUnits="userSpaceOnUse">
<stop stop-color="white"/>
<stop offset="1" stop-color="#EEEEEE"/>
</linearGradient>
</defs>
</svg>
