<svg width="48" height="48" viewBox="0 0 48 48" fill="none" xmlns="http://www.w3.org/2000/svg">
<path d="M43.4803 36.0005L27.4803 8.00045C27.1314 7.38486 26.6255 6.87282 26.0141 6.51659C25.4028 6.16035 24.7079 5.97266 24.0003 5.97266C23.2927 5.97266 22.5978 6.16035 21.9864 6.51659C21.3751 6.87282 20.8692 7.38486 20.5203 8.00045L4.52029 36.0005C4.16854 36.6097 3.98368 37.3009 3.98438 38.0044C3.98507 38.7079 4.17129 39.3988 4.52425 40.0074C4.87721 40.6159 5.38442 41.1206 5.99471 41.4705C6.60501 41.8205 7.2968 42.0033 8.00029 42.0005H40.0003C40.7038 42.0033 41.3956 41.8205 42.0059 41.4705C42.6162 41.1206 43.1234 40.6159 43.4763 40.0074C43.8293 39.3988 44.0155 38.7079 44.0162 38.0044C44.0169 37.3009 43.832 36.6097 43.4803 36.0005ZM22.0003 14.0004C22.0003 13.47 22.211 12.9613 22.5861 12.5862C22.9612 12.2112 23.4699 12.0004 24.0003 12.0004C24.5307 12.0004 25.0394 12.2112 25.4145 12.5862C25.7896 12.9613 26.0003 13.47 26.0003 14.0004V26.0005C26.0003 26.5309 25.7896 27.0396 25.4145 27.4147C25.0394 27.7897 24.5307 28.0005 24.0003 28.0005C23.4699 28.0005 22.9612 27.7897 22.5861 27.4147C22.211 27.0396 22.0003 26.5309 22.0003 26.0005V14.0004ZM24.0003 38.0005C23.4069 38.0005 22.8269 37.8245 22.3336 37.4949C21.8402 37.1652 21.4557 36.6967 21.2287 36.1485C21.0016 35.6003 20.9422 34.9971 21.0579 34.4152C21.1737 33.8332 21.4594 33.2987 21.879 32.8791C22.2985 32.4596 22.8331 32.1738 23.415 32.0581C23.997 31.9423 24.6002 32.0018 25.1483 32.2288C25.6965 32.4559 26.1651 32.8404 26.4947 33.3337C26.8243 33.8271 27.0003 34.4071 27.0003 35.0005C27.0003 35.7961 26.6842 36.5592 26.1216 37.1218C25.559 37.6844 24.7959 38.0005 24.0003 38.0005Z" fill="#F06D0F"/>
</svg>
