<svg width="48" height="48" viewBox="0 0 48 48" fill="none" xmlns="http://www.w3.org/2000/svg">
<rect width="48" height="48" rx="24" fill="#F0E8FA"/>
<path d="M20.9467 16.9469L22.6667 15.2136V29.3336C22.6667 29.6872 22.8071 30.0263 23.0572 30.2764C23.3072 30.5264 23.6464 30.6669 24 30.6669C24.3536 30.6669 24.6928 30.5264 24.9428 30.2764C25.1929 30.0263 25.3333 29.6872 25.3333 29.3336V15.2136L27.0533 16.9469C27.1773 17.0719 27.3248 17.1711 27.4872 17.2388C27.6497 17.3065 27.824 17.3413 28 17.3413C28.176 17.3413 28.3503 17.3065 28.5128 17.2388C28.6752 17.1711 28.8227 17.0719 28.9467 16.9469C29.0716 16.823 29.1708 16.6755 29.2385 16.513C29.3062 16.3505 29.3411 16.1763 29.3411 16.0002C29.3411 15.8242 29.3062 15.65 29.2385 15.4875C29.1708 15.325 29.0716 15.1775 28.9467 15.0536L24.9467 11.0536C24.8227 10.9286 24.6752 10.8294 24.5128 10.7617C24.3503 10.694 24.176 10.6592 24 10.6592C23.824 10.6592 23.6497 10.694 23.4872 10.7617C23.3248 10.8294 23.1773 10.9286 23.0533 11.0536L19.0533 15.0536C18.8023 15.3046 18.6612 15.6452 18.6612 16.0002C18.6612 16.3553 18.8023 16.6958 19.0533 16.9469C19.3044 17.198 19.6449 17.339 20 17.339C20.3551 17.339 20.6956 17.198 20.9467 16.9469ZM34.6667 24.0002C34.313 24.0002 33.9739 24.1407 33.7239 24.3908C33.4738 24.6408 33.3333 24.98 33.3333 25.3336V33.3336C33.3333 33.6872 33.1929 34.0263 32.9428 34.2764C32.6928 34.5264 32.3536 34.6669 32 34.6669H16C15.6464 34.6669 15.3072 34.5264 15.0572 34.2764C14.8071 34.0263 14.6667 33.6872 14.6667 33.3336V25.3336C14.6667 24.98 14.5262 24.6408 14.2761 24.3908C14.0261 24.1407 13.687 24.0002 13.3333 24.0002C12.9797 24.0002 12.6406 24.1407 12.3905 24.3908C12.1405 24.6408 12 24.98 12 25.3336V33.3336C12 34.3944 12.4214 35.4119 13.1716 36.162C13.9217 36.9122 14.9391 37.3336 16 37.3336H32C33.0609 37.3336 34.0783 36.9122 34.8284 36.162C35.5786 35.4119 36 34.3944 36 33.3336V25.3336C36 24.98 35.8595 24.6408 35.6095 24.3908C35.3594 24.1407 35.0203 24.0002 34.6667 24.0002Z" fill="#2B005C"/>
</svg>
