<svg width="48" height="48" viewBox="0 0 16 16" fill="none" xmlns="http://www.w3.org/2000/svg">
<path d="M11.3333 7.33301H4.66667C4.48986 7.33301 4.32029 7.40325 4.19526 7.52827C4.07024 7.65329 4 7.82286 4 7.99967C4 8.17649 4.07024 8.34605 4.19526 8.47108C4.32029 8.5961 4.48986 8.66634 4.66667 8.66634H11.3333C11.5101 8.66634 11.6797 8.5961 11.8047 8.47108C11.9298 8.34605 12 8.17649 12 7.99967C12 7.82286 11.9298 7.65329 11.8047 7.52827C11.6797 7.40325 11.5101 7.33301 11.3333 7.33301ZM9.33333 11.333H6.66667C6.48986 11.333 6.32029 11.4032 6.19526 11.5283C6.07024 11.6533 6 11.8229 6 11.9997C6 12.1765 6.07024 12.3461 6.19526 12.4711C6.32029 12.5961 6.48986 12.6663 6.66667 12.6663H9.33333C9.51014 12.6663 9.67971 12.5961 9.80474 12.4711C9.92976 12.3461 10 12.1765 10 11.9997C10 11.8229 9.92976 11.6533 9.80474 11.5283C9.67971 11.4032 9.51014 11.333 9.33333 11.333ZM13.3333 3.33301H2.66667C2.48986 3.33301 2.32029 3.40325 2.19526 3.52827C2.07024 3.65329 2 3.82286 2 3.99967C2 4.17649 2.07024 4.34605 2.19526 4.47108C2.32029 4.5961 2.48986 4.66634 2.66667 4.66634H13.3333C13.5101 4.66634 13.6797 4.5961 13.8047 4.47108C13.9298 4.34605 14 4.17649 14 3.99967C14 3.82286 13.9298 3.65329 13.8047 3.52827C13.6797 3.40325 13.5101 3.33301 13.3333 3.33301Z" fill="#2B005C"/>
</svg>
