<svg width="48" height="48" viewBox="0 0 33 32" fill="none" xmlns="http://www.w3.org/2000/svg">
<circle cx="16.144" cy="16" r="13.3333" fill="white"/>
<path d="M16.144 2.66663C13.5069 2.66663 10.9291 3.44861 8.73641 4.9137C6.54375 6.37878 4.83478 8.46116 3.82561 10.8975C2.81645 13.3339 2.5524 16.0148 3.06687 18.6012C3.58134 21.1876 4.85122 23.5634 6.71592 25.4281C8.58062 27.2928 10.9564 28.5626 13.5428 29.0771C16.1292 29.5916 18.8101 29.3275 21.2465 28.3184C23.6828 27.3092 25.7652 25.6002 27.2303 23.4076C28.6954 21.2149 29.4773 18.637 29.4773 16C29.4773 14.249 29.1325 12.5152 28.4624 10.8975C27.7923 9.27984 26.8102 7.80998 25.5721 6.57187C24.334 5.33375 22.8641 4.35163 21.2465 3.68157C19.6288 3.0115 17.895 2.66663 16.144 2.66663ZM23.0907 12.9466L15.0907 20.9466C14.9667 21.0716 14.8193 21.1708 14.6568 21.2385C14.4943 21.3062 14.32 21.341 14.144 21.341C13.968 21.341 13.7937 21.3062 13.6312 21.2385C13.4688 21.1708 13.3213 21.0716 13.1973 20.9466L9.19734 16.9466C9.07302 16.8223 8.97441 16.6747 8.90713 16.5123C8.83985 16.3499 8.80522 16.1758 8.80522 16C8.80522 15.6449 8.94627 15.3044 9.19734 15.0533C9.44841 14.8022 9.78894 14.6612 10.144 14.6612C10.4991 14.6612 10.8396 14.8022 11.0907 15.0533L14.144 18.12L21.1973 11.0533C21.4484 10.8022 21.7889 10.6612 22.144 10.6612C22.4991 10.6612 22.8396 10.8022 23.0907 11.0533C23.3417 11.3044 23.4828 11.6449 23.4828 12C23.4828 12.355 23.3417 12.6956 23.0907 12.9466Z" fill="#25AB21"/>
</svg>
