<svg width="48" height="48" viewBox="0 0 32 32" fill="none" xmlns="http://www.w3.org/2000/svg">
<path d="M20.7667 14.9067L14.1 10.2401C13.8752 10.0831 13.6075 9.99934 13.3333 10.0001C13.1191 9.99792 12.908 10.0507 12.72 10.1534C12.5036 10.2655 12.3221 10.4348 12.1951 10.6428C12.0682 10.8508 12.0007 11.0897 12 11.3334V20.6667C12.0007 20.9104 12.0682 21.1493 12.1951 21.3573C12.3221 21.5654 12.5036 21.7346 12.72 21.8467C12.908 21.9494 13.1191 22.0022 13.3333 22.0001C13.6075 22.0008 13.8752 21.917 14.1 21.7601L20.7667 17.0934C20.9427 16.9705 21.0865 16.807 21.1857 16.6166C21.285 16.4263 21.3368 16.2147 21.3368 16.0001C21.3368 15.7854 21.285 15.5739 21.1857 15.3835C21.0865 15.1932 20.9427 15.0296 20.7667 14.9067Z" fill="#3E0084"/>
<rect x="0.5" y="0.5" width="31" height="31" rx="15.5" stroke="#B5B5B5"/>
</svg>
