<svg width="40" height="40" viewBox="0 0 40 40" fill="none" xmlns="http://www.w3.org/2000/svg">
<circle cx="20" cy="20" r="20" fill="#E5F7EE"/>
<circle cx="20.0001" cy="20.0001" r="13.3333" fill="white"/>
<path d="M20.0001 6.66675C17.363 6.66675 14.7851 7.44873 12.5925 8.91382C10.3998 10.3789 8.69086 12.4613 7.68169 14.8976C6.67253 17.334 6.40848 20.0149 6.92295 22.6013C7.43742 25.1877 8.7073 27.5635 10.572 29.4282C12.4367 31.2929 14.8125 32.5627 17.3989 33.0772C19.9853 33.5917 22.6662 33.3276 25.1025 32.3185C27.5389 31.3093 29.6213 29.6003 31.0863 27.4077C32.5514 25.215 33.3334 22.6372 33.3334 20.0001C33.3334 18.2491 32.9885 16.5153 32.3185 14.8976C31.6484 13.28 30.6663 11.8101 29.4282 10.572C28.1901 9.33388 26.7202 8.35175 25.1025 7.68169C23.4849 7.01162 21.751 6.66675 20.0001 6.66675ZM26.9468 16.9467L18.9468 24.9467C18.8228 25.0717 18.6753 25.1709 18.5129 25.2386C18.3504 25.3063 18.1761 25.3411 18.0001 25.3411C17.8241 25.3411 17.6498 25.3063 17.4873 25.2386C17.3248 25.1709 17.1774 25.0717 17.0534 24.9467L13.0534 20.9467C12.9291 20.8224 12.8305 20.6748 12.7632 20.5124C12.6959 20.35 12.6613 20.1759 12.6613 20.0001C12.6613 19.645 12.8023 19.3045 13.0534 19.0534C13.3045 18.8023 13.645 18.6613 14.0001 18.6613C14.3552 18.6613 14.6957 18.8023 14.9468 19.0534L18.0001 22.1201L25.0534 15.0534C25.3045 14.8023 25.645 14.6613 26.0001 14.6613C26.3552 14.6613 26.6957 14.8023 26.9468 15.0534C27.1978 15.3045 27.3389 15.645 27.3389 16.0001C27.3389 16.3552 27.1978 16.6957 26.9468 16.9467Z" fill="#10D974"/>
</svg>
