<svg width="48" height="48" viewBox="0 0 16 16" fill="none" xmlns="http://www.w3.org/2000/svg">
<circle cx="7.99992" cy="8" r="6.66667" fill="white"/>
<path d="M7.99992 1.33334C6.68138 1.33334 5.39245 1.72433 4.29612 2.45687C3.19979 3.18941 2.34531 4.23061 1.84072 5.44878C1.33614 6.66695 1.20412 8.0074 1.46135 9.3006C1.71859 10.5938 2.35353 11.7817 3.28588 12.714C4.21823 13.6464 5.40611 14.2813 6.69932 14.5386C7.99253 14.7958 9.33297 14.6638 10.5511 14.1592C11.7693 13.6546 12.8105 12.8001 13.5431 11.7038C14.2756 10.6075 14.6666 9.31854 14.6666 8C14.6666 7.12452 14.4942 6.25762 14.1591 5.44878C13.8241 4.63994 13.333 3.90501 12.714 3.28596C12.0949 2.6669 11.36 2.17584 10.5511 1.84081C9.74231 1.50577 8.8754 1.33334 7.99992 1.33334ZM10.4733 9.52667C10.5357 9.58864 10.5853 9.66238 10.6192 9.74362C10.653 9.82486 10.6705 9.91199 10.6705 10C10.6705 10.088 10.653 10.1751 10.6192 10.2564C10.5853 10.3376 10.5357 10.4114 10.4733 10.4733C10.4113 10.5358 10.3375 10.5854 10.2563 10.6193C10.1751 10.6531 10.0879 10.6705 9.99992 10.6705C9.91191 10.6705 9.82478 10.6531 9.74354 10.6193C9.6623 10.5854 9.58856 10.5358 9.52659 10.4733L7.99992 8.94L6.47326 10.4733C6.41128 10.5358 6.33755 10.5854 6.25631 10.6193C6.17507 10.6531 6.08793 10.6705 5.99992 10.6705C5.91191 10.6705 5.82478 10.6531 5.74354 10.6193C5.6623 10.5854 5.58856 10.5358 5.52659 10.4733C5.4641 10.4114 5.41451 10.3376 5.38066 10.2564C5.34682 10.1751 5.32939 10.088 5.32939 10C5.32939 9.91199 5.34682 9.82486 5.38066 9.74362C5.41451 9.66238 5.4641 9.58864 5.52659 9.52667L7.05992 8L5.52659 6.47334C5.40105 6.3478 5.33053 6.17754 5.33053 6C5.33053 5.82247 5.40105 5.6522 5.52659 5.52667C5.65212 5.40113 5.82239 5.33061 5.99992 5.33061C6.17746 5.33061 6.34772 5.40113 6.47326 5.52667L7.99992 7.06L9.52659 5.52667C9.65212 5.40113 9.82239 5.33061 9.99992 5.33061C10.1775 5.33061 10.3477 5.40113 10.4733 5.52667C10.5988 5.6522 10.6693 5.82247 10.6693 6C10.6693 6.17754 10.5988 6.3478 10.4733 6.47334L8.93992 8L10.4733 9.52667Z" fill="#F50031"/>
</svg>
