<svg width="48" height="48" viewBox="0 0 16 16" fill="none" xmlns="http://www.w3.org/2000/svg">
<path d="M5.66699 2.66663C5.40178 2.66663 5.14742 2.77198 4.95989 2.95952C4.77235 3.14706 4.66699 3.40141 4.66699 3.66663V12.3333C4.66699 12.5985 4.77235 12.8529 4.95989 13.0404C5.14742 13.2279 5.40178 13.3333 5.66699 13.3333C5.93221 13.3333 6.18656 13.2279 6.3741 13.0404C6.56164 12.8529 6.66699 12.5985 6.66699 12.3333V3.66663C6.66699 3.40141 6.56164 3.14706 6.3741 2.95952C6.18656 2.77198 5.93221 2.66663 5.66699 2.66663ZM10.3337 2.66663C10.0684 2.66663 9.81409 2.77198 9.62655 2.95952C9.43902 3.14706 9.33366 3.40141 9.33366 3.66663V12.3333C9.33366 12.5985 9.43902 12.8529 9.62655 13.0404C9.81409 13.2279 10.0684 13.3333 10.3337 13.3333C10.5989 13.3333 10.8532 13.2279 11.0408 13.0404C11.2283 12.8529 11.3337 12.5985 11.3337 12.3333V3.66663C11.3337 3.40141 11.2283 3.14706 11.0408 2.95952C10.8532 2.77198 10.5989 2.66663 10.3337 2.66663Z" fill="#3E0084"/>
</svg>
