<svg id="Frame_626612" data-name="Frame 626612" xmlns="http://www.w3.org/2000/svg" width="617" height="617" viewBox="0 0 617 617">
  <path id="Path_8" data-name="Path 8" d="M192.813,0H424.188C530.675,0,617,86.325,617,192.813V424.188C617,530.675,530.675,617,424.188,617H192.813C86.325,617,0,530.675,0,424.188V192.813C0,86.325,86.325,0,192.813,0Z" fill="#f5f5f5"/>
  <path id="Path_9" data-name="Path 9" d="M125.312,159.076a78.035,78.035,0,0,0,96.2-96.2A77.166,77.166,0,0,0,167.53,8.89a78.035,78.035,0,0,0-96.2,96.2,77.163,77.163,0,0,0,53.984,53.984ZM203,191.259l-6.575,12.977a17.308,17.308,0,0,1-12.631,9.343h-2.768a17.3,17.3,0,0,1-12.285-5.018l-22.32-22.32L124.1,208.735a17.3,17.3,0,0,1-12.285,5.018h-2.768a17.309,17.309,0,0,1-12.631-9.343l-6.575-12.977A138.422,138.422,0,0,0,8,317.568a34.606,34.606,0,0,0,34.605,34.605H250.236a34.606,34.606,0,0,0,34.605-34.605A138.426,138.426,0,0,0,203,191.259ZM111.816,317.568H77.21a17.3,17.3,0,0,1,0-34.605h34.605a17.3,17.3,0,0,1,0,34.605Z" transform="translate(162.079 105.917)" fill="rgba(0,0,0,0.65)"/>
</svg>
