<svg id="Frame_626612" data-name="Frame 626612" xmlns="http://www.w3.org/2000/svg" width="617" height="617" viewBox="0 0 617 617">
  <rect id="Rectangle_50" data-name="Rectangle 50" width="617" height="617" rx="192.813" fill="#3535f3"/>
  <path id="Path_10" data-name="Path 10" d="M125.312,159.076a78.035,78.035,0,0,0,96.2-96.2A77.166,77.166,0,0,0,167.53,8.89a78.035,78.035,0,0,0-96.2,96.2,77.163,77.163,0,0,0,53.984,53.984ZM203,191.259l-6.575,12.977a17.308,17.308,0,0,1-12.631,9.343h-2.768a17.3,17.3,0,0,1-12.285-5.018l-22.32-22.32L124.1,208.735a17.3,17.3,0,0,1-12.285,5.018h-2.768a17.309,17.309,0,0,1-12.631-9.343l-6.575-12.977A138.422,138.422,0,0,0,8,317.568a34.606,34.606,0,0,0,34.605,34.605H250.236a34.606,34.606,0,0,0,34.605-34.605A138.426,138.426,0,0,0,203,191.259ZM111.816,317.568H77.21a17.3,17.3,0,0,1,0-34.605h34.605a17.3,17.3,0,0,1,0,34.605Z" transform="translate(162.079 105.917)" fill="#fff"/>
</svg>
