<svg id="Frame_626612" data-name="Frame 626612" xmlns="http://www.w3.org/2000/svg" width="617" height="617" viewBox="0 0 617 617">
  <path id="Path_8" data-name="Path 8" d="M192.813,0H424.188C530.675,0,617,86.325,617,192.813V424.188C617,530.675,530.675,617,424.188,617H192.813C86.325,617,0,530.675,0,424.188V192.813C0,86.325,86.325,0,192.813,0Z" fill="#f5f5f5"/>
  <path id="Vector_7_" data-name="Vector (7)" d="M172.373,0A172.4,172.4,0,0,0,38.937,281.525L281.5,38.962A172.4,172.4,0,0,0,172.373,0ZM305.809,63.27,63.245,305.833A172.4,172.4,0,0,0,305.809,63.27Z" transform="translate(136.185 136.173)" fill="rgba(0,0,0,0.65)"/>
</svg>
