<svg id="Frame_626612" data-name="Frame 626612" xmlns="http://www.w3.org/2000/svg" width="617" height="617" viewBox="0 0 617 617">
  <path id="Path_8" data-name="Path 8" d="M192.813,0H424.188C530.675,0,617,86.325,617,192.813V424.188C617,530.675,530.675,617,424.188,617H192.813C86.325,617,0,530.675,0,424.188V192.813C0,86.325,86.325,0,192.813,0Z" fill="#f5f5f5"/>
  <path id="Path_11" data-name="Path 11" d="M129.351,109.291a17.193,17.193,0,1,0,12.157,5.036A17.193,17.193,0,0,0,129.351,109.291ZM180.929,281.22H146.544V245.459a120.35,120.35,0,1,0-34.386,0V281.22H77.772A51.58,51.58,0,0,0,26.193,332.8a17.193,17.193,0,0,0,17.193,17.193H215.315A17.193,17.193,0,0,0,232.508,332.8a51.58,51.58,0,0,0-51.579-51.579ZM77.772,126.484a51.58,51.58,0,1,1,15.107,36.471A51.584,51.584,0,0,1,77.772,126.484Z" transform="translate(179.149 130.508)" fill="rgba(0,0,0,0.65)"/>
</svg>
