<svg id="Frame_626612" data-name="Frame 626612" xmlns="http://www.w3.org/2000/svg" width="617" height="617" viewBox="0 0 617 617">
  <rect id="Rectangle_50" data-name="Rectangle 50" width="617" height="617" rx="192.813" fill="#3535f3"/>
  <path id="employees" d="M153.468,172.65a86.517,86.517,0,1,0-60.985-25.34A86.328,86.328,0,0,0,153.468,172.65Zm153.466,19.183a57.551,57.551,0,1,0-40.694-16.856A57.545,57.545,0,0,0,306.934,191.833Zm0,19.183A76.736,76.736,0,0,0,255.715,230.2,153.466,153.466,0,0,0,0,345.3a38.367,38.367,0,0,0,38.367,38.367h230.2A38.367,38.367,0,0,0,306.934,345.3a158.425,158.425,0,0,0-1.343-19.183H345.3a38.367,38.367,0,0,0,38.367-38.367,76.735,76.735,0,0,0-76.733-76.733Z" transform="translate(116.666 116.667)" fill="#fff"/>
</svg>
