<svg id="Frame_626612" data-name="Frame 626612" xmlns="http://www.w3.org/2000/svg" width="617" height="617" viewBox="0 0 617 617">
  <path id="Path_8" data-name="Path 8" d="M192.813,0H424.188C530.675,0,617,86.325,617,192.813V424.188C617,530.675,530.675,617,424.188,617H192.813C86.325,617,0,530.675,0,424.188V192.813C0,86.325,86.325,0,192.813,0Z" fill="#f5f5f5"/>
  <path id="Path_7" data-name="Path 7" d="M491.1,256.637,344.172,129.188a53.987,53.987,0,0,0-71.341,0L125.909,256.637A29.5,29.5,0,0,0,143.648,308.5h10.6V443.473A57.844,57.844,0,0,0,212.1,501.316h57.844V385.629h77.125V501.316h57.844a57.845,57.845,0,0,0,57.844-57.844V308.5h10.6A29.5,29.5,0,0,0,491.1,256.637Z" fill="rgba(0,0,0,0.65)"/>
</svg>
