<svg id="Frame_626612" data-name="Frame 626612" xmlns="http://www.w3.org/2000/svg" width="617" height="617" viewBox="0 0 617 617">
  <path id="Path_8" data-name="Path 8" d="M192.813,0H424.188C530.675,0,617,86.325,617,192.813V424.188C617,530.675,530.675,617,424.188,617H192.813C86.325,617,0,530.675,0,424.188V192.813C0,86.325,86.325,0,192.813,0Z" fill="#f5f5f5"/>
  <path id="Vector_8_" data-name="Vector (8)" d="M341.227,189.571V56.871A56.872,56.872,0,0,0,284.356,0H56.871A56.871,56.871,0,0,0,0,56.871V274.878a66.349,66.349,0,0,0,66.35,66.35H322.27a18.957,18.957,0,0,0,0-37.914H303.313V243.03a56.867,56.867,0,0,0,37.914-53.459ZM265.4,303.313H66.35a28.436,28.436,0,1,1,0-56.871H265.4Z" transform="translate(137.886 114.386)" fill="rgba(0,0,0,0.65)"/>
</svg>
