<svg id="Frame_626612" data-name="Frame 626612" xmlns="http://www.w3.org/2000/svg" width="617" height="617" viewBox="0 0 617 617">
  <rect id="Rectangle_50" data-name="Rectangle 50" width="617" height="617" rx="192.813" fill="#3535f3"/>
  <path id="Vector_8_" data-name="Vector (8)" d="M341.227,189.571V56.871A56.872,56.872,0,0,0,284.356,0H56.871A56.871,56.871,0,0,0,0,56.871V274.878a66.349,66.349,0,0,0,66.35,66.35H322.27a18.957,18.957,0,0,0,0-37.914H303.313V243.03a56.867,56.867,0,0,0,37.914-53.459ZM265.4,303.313H66.35a28.436,28.436,0,1,1,0-56.871H265.4Z" transform="translate(137.886 137.886)" fill="#fff"/>
</svg>
