<svg id="Frame_626612" data-name="Frame 626612" xmlns="http://www.w3.org/2000/svg" width="617" height="617" viewBox="0 0 617 617">
  <rect id="Rectangle_50" data-name="Rectangle 50" width="617" height="617" rx="192.813" fill="#3535f3"/>
  <path id="Vector_9_" data-name="Vector (9)" d="M301.747,192.266l-24.118-13.83V158.872l24.118-13.83A33.73,33.73,0,0,0,314.059,99L297.193,69.654a33.731,33.731,0,0,0-46.043-12.312l-19.9,11.468-4.216,2.53-16.865-9.782V33.731A33.728,33.728,0,0,0,176.437,0h-33.73a33.731,33.731,0,0,0-33.731,33.731V61.559L104.76,63.92,92.111,71.341l-4.216-2.53-19.9-11.468A33.731,33.731,0,0,0,21.951,69.654L5.085,99A33.731,33.731,0,0,0,17.4,145.043l24.118,13.83v19.564L17.4,192.266A33.731,33.731,0,0,0,5.085,238.308l16.865,29.346a33.731,33.731,0,0,0,46.043,12.312l24.118-14,16.865,9.782v27.828a33.731,33.731,0,0,0,33.731,33.731h33.73a33.729,33.729,0,0,0,33.731-33.731V275.75l16.865-9.782,24.118,14a33.73,33.73,0,0,0,46.043-12.312l16.865-29.346a33.73,33.73,0,0,0-12.312-46.043ZM159.572,219.25a50.595,50.595,0,1,1,35.777-14.82A50.588,50.588,0,0,1,159.572,219.25Z" transform="translate(148.928 139.846)" fill="#fff"/>
</svg>
