<svg id="Frame_626612" data-name="Frame 626612" xmlns="http://www.w3.org/2000/svg" width="617" height="617" viewBox="0 0 617 617">
  <path id="Path_8" data-name="Path 8" d="M192.813,0H424.188C530.675,0,617,86.325,617,192.813V424.188C617,530.675,530.675,617,424.188,617H192.813C86.325,617,0,530.675,0,424.188V192.813C0,86.325,86.325,0,192.813,0Z" fill="#f5f5f5"/>
  <path id="Vector_6_" data-name="Vector (6)" d="M0,76.444V286.667A57.334,57.334,0,0,0,57.333,344h22.36l54.084-236.022ZM286.667,0H57.333A57.333,57.333,0,0,0,3.44,38.222L344,117.151V57.333A57.334,57.334,0,0,0,286.667,0Zm-167.8,344h167.8A57.335,57.335,0,0,0,344,286.667V156.329L172,116.578Zm97.084-154.036a38.322,38.322,0,0,1,67.08,37.076l-25.991,54.276a9.556,9.556,0,0,1-17.2,0L213.853,227.04a38.226,38.226,0,0,1,2.1-37.076Z" transform="translate(137 137)" fill="rgba(0,0,0,0.65)"/>
</svg>
